<?xml version="1.0" encoding="UTF-8"?>
<svg xmlns="http://www.w3.org/2000/svg" xmlns:xlink="http://www.w3.org/1999/xlink" width="80px" height="80px" viewBox="0 0 80 80" version="1.1">
<g id="surface1">
<path style=" stroke:none;fill-rule:evenodd;fill:rgb(1.568627%,16.862745%,67.058824%);fill-opacity:1;" d="M 38.984375 19.355469 C 37.675781 19.449219 36.84375 19.558594 35.566406 19.804688 C 34.363281 20.035156 32.332031 20.734375 31.027344 21.363281 C 30.085938 21.816406 28.625 22.695312 27.910156 23.234375 C 27.679688 23.40625 27.402344 23.617188 27.289062 23.695312 C 26.703125 24.113281 25.480469 25.238281 24.84375 25.949219 C 24.679688 26.132812 24.5 26.328125 24.445312 26.386719 C 24.214844 26.632812 23.960938 26.941406 23.691406 27.300781 C 23.535156 27.511719 23.347656 27.757812 23.277344 27.851562 C 22.65625 28.644531 21.496094 30.640625 21.140625 31.515625 C 21.101562 31.609375 21.011719 31.832031 20.933594 32.015625 C 20.4375 33.207031 19.886719 34.96875 19.769531 35.746094 C 19.75 35.859375 19.691406 36.21875 19.632812 36.546875 C 19.183594 39.171875 19.25 41.757812 19.839844 44.582031 C 20.039062 45.554688 20.441406 46.796875 20.933594 47.984375 C 21.007812 48.167969 21.089844 48.359375 21.109375 48.414062 C 21.285156 48.847656 21.996094 50.183594 22.371094 50.785156 C 22.40625 50.839844 22.445312 50.914062 22.464844 50.949219 C 22.523438 51.078125 23.140625 51.976562 23.425781 52.351562 C 23.585938 52.558594 23.824219 52.871094 23.953125 53.039062 C 24.328125 53.53125 25.480469 54.757812 25.898438 55.113281 C 25.980469 55.183594 26.140625 55.328125 26.25 55.433594 C 26.527344 55.695312 27.097656 56.171875 27.289062 56.300781 C 27.378906 56.363281 27.546875 56.488281 27.667969 56.585938 C 27.890625 56.765625 28.046875 56.875 28.550781 57.214844 C 28.921875 57.464844 29.1875 57.628906 29.867188 58.015625 C 30.910156 58.609375 31.617188 58.933594 33 59.453125 C 36.09375 60.613281 39.796875 60.953125 43.316406 60.398438 C 44.984375 60.136719 46.039062 59.847656 47.664062 59.195312 C 48.890625 58.707031 49.289062 58.511719 50.332031 57.902344 C 50.507812 57.800781 50.703125 57.691406 50.765625 57.65625 C 51.113281 57.464844 52.359375 56.605469 52.480469 56.46875 C 52.515625 56.429688 52.558594 56.398438 52.578125 56.398438 C 52.597656 56.398438 52.636719 56.378906 52.664062 56.351562 C 52.691406 56.324219 52.847656 56.199219 53.003906 56.074219 C 53.296875 55.84375 54.015625 55.210938 54.480469 54.765625 C 54.953125 54.316406 55.996094 53.140625 56.28125 52.734375 C 56.378906 52.597656 56.488281 52.453125 56.519531 52.417969 C 56.585938 52.347656 56.738281 52.148438 56.851562 51.984375 C 58.074219 50.226562 58.855469 48.699219 59.5625 46.699219 C 59.828125 45.9375 60.199219 44.601562 60.246094 44.226562 C 60.253906 44.15625 60.269531 44.089844 60.277344 44.078125 C 60.285156 44.0625 60.300781 43.96875 60.3125 43.867188 C 60.324219 43.765625 60.355469 43.554688 60.382812 43.398438 C 60.777344 41.117188 60.742188 38.371094 60.296875 36.066406 C 60.277344 35.964844 60.253906 35.832031 60.246094 35.765625 C 60.167969 35.195312 59.671875 33.550781 59.273438 32.535156 C 58.886719 31.554688 58.882812 31.550781 58.625 31 C 58.242188 30.179688 56.894531 27.949219 56.671875 27.765625 C 56.625 27.730469 56.410156 27.445312 56.371094 27.378906 C 56.351562 27.335938 56.316406 27.285156 56.292969 27.261719 C 56.269531 27.238281 56.207031 27.15625 56.152344 27.082031 C 56.097656 27.011719 56.046875 26.941406 56.035156 26.933594 C 56.023438 26.925781 55.9375 26.820312 55.839844 26.707031 C 55.167969 25.886719 53.859375 24.597656 53.09375 23.996094 C 52.320312 23.390625 52.03125 23.171875 51.589844 22.875 C 50.605469 22.210938 49.074219 21.363281 48.320312 21.070312 C 48.191406 21.019531 47.917969 20.90625 47.714844 20.824219 C 46.636719 20.382812 45.164062 19.921875 44.5 19.816406 C 44.417969 19.804688 44.199219 19.765625 44.015625 19.730469 C 42.410156 19.414062 40.328125 19.261719 38.984375 19.355469 M 41.710938 28.035156 C 41.710938 28.097656 41.695312 28.34375 41.683594 28.582031 C 41.589844 30.195312 42.003906 31.816406 43.054688 33.964844 C 43.542969 34.964844 43.601562 35.121094 43.597656 35.5 C 43.597656 36.3125 43 37.085938 41.984375 37.59375 C 41.550781 37.804688 41.53125 37.765625 41.878906 37.398438 C 42.300781 36.960938 42.476562 36.488281 42.398438 36.011719 C 42.347656 35.683594 42.230469 35.5 41.765625 35.023438 C 40.566406 33.785156 39.984375 32.394531 40.199219 31.265625 C 40.242188 31.035156 40.253906 31.035156 39.949219 31.285156 C 37.265625 33.5 36.652344 36.21875 38.5 37.707031 C 38.839844 37.980469 38.410156 37.867188 37.921875 37.554688 C 36.847656 36.867188 36.246094 35.441406 36.4375 34.042969 C 36.6875 32.1875 38.074219 30.367188 40.597656 28.574219 C 41.539062 27.902344 41.722656 27.816406 41.710938 28.035156 M 40.160156 36.746094 C 40.277344 36.863281 40.292969 37.027344 40.296875 38.09375 L 40.300781 38.96875 L 40.375 38.953125 C 40.417969 38.945312 40.539062 38.925781 40.648438 38.914062 C 41.035156 38.875 41.421875 38.796875 42.234375 38.59375 C 43.40625 38.300781 43.816406 38.292969 43.988281 38.554688 C 44.078125 38.6875 44.101562 51.140625 44.015625 51.40625 C 43.898438 51.757812 43.597656 51.980469 43.097656 52.089844 C 42.734375 52.167969 37.390625 52.183594 36.988281 52.105469 C 36.476562 52.011719 36.207031 51.835938 36.042969 51.507812 L 35.949219 51.316406 L 35.949219 44.984375 C 35.949219 39.082031 35.953125 38.644531 36.007812 38.546875 C 36.140625 38.300781 36.472656 38.308594 37.464844 38.578125 C 38.242188 38.789062 38.863281 38.917969 39.238281 38.953125 L 39.496094 38.976562 L 39.507812 37.929688 C 39.519531 36.796875 39.519531 36.785156 39.707031 36.675781 C 39.824219 36.609375 40.058594 36.644531 40.160156 36.746094 "/>
<path style=" stroke:none;fill-rule:evenodd;fill:rgb(98.431373%,98.431373%,98.431373%);fill-opacity:1;" d="M 41.214844 28.191406 C 39.242188 29.453125 37.667969 31.039062 36.953125 32.480469 C 35.890625 34.617188 36.476562 36.8125 38.359375 37.765625 C 38.589844 37.878906 38.640625 37.835938 38.445312 37.691406 C 37.214844 36.789062 37.054688 34.996094 38.054688 33.378906 C 38.46875 32.714844 39.324219 31.753906 39.992188 31.207031 C 40.253906 30.992188 40.273438 30.992188 40.242188 31.191406 C 40.042969 32.476562 40.527344 33.671875 41.796875 35.015625 C 42.679688 35.953125 42.695312 36.652344 41.851562 37.472656 C 41.597656 37.722656 41.625 37.738281 41.984375 37.550781 C 43.082031 36.976562 43.589844 36.289062 43.5625 35.417969 L 43.550781 35.042969 L 43.0625 34.046875 C 42.183594 32.257812 41.800781 31.03125 41.664062 29.585938 C 41.625 29.164062 41.636719 28.167969 41.6875 28.007812 C 41.722656 27.886719 41.644531 27.914062 41.214844 28.191406 M 39.65625 36.75 C 39.605469 36.792969 39.5625 36.835938 39.558594 36.839844 C 39.554688 36.84375 39.546875 37.328125 39.535156 37.917969 L 39.515625 38.984375 L 39.285156 38.972656 C 38.917969 38.957031 38.355469 38.847656 37.441406 38.613281 C 36.0625 38.261719 36.035156 38.273438 35.992188 39.085938 C 35.976562 39.378906 35.96875 42.242188 35.972656 45.449219 L 35.984375 51.285156 L 36.058594 51.441406 C 36.34375 52.058594 36.507812 52.09375 39.214844 52.121094 C 43.195312 52.15625 43.621094 52.101562 43.9375 51.5 L 44.015625 51.351562 L 44.015625 45 C 44.015625 40.078125 44.007812 38.632812 43.976562 38.578125 C 43.832031 38.328125 43.421875 38.339844 42.25 38.628906 C 41.421875 38.835938 40.695312 38.964844 40.394531 38.964844 L 40.234375 38.964844 L 40.226562 37.898438 L 40.214844 36.828125 L 40.125 36.746094 C 39.992188 36.636719 39.777344 36.636719 39.65625 36.75 "/>
<path style=" stroke:none;fill-rule:evenodd;fill:rgb(34.509804%,46.27451%,78.823529%);fill-opacity:1;" d="M 41.042969 28.269531 C 40.929688 28.34375 40.890625 28.390625 40.992188 28.335938 C 41.066406 28.296875 41.1875 28.203125 41.167969 28.203125 C 41.15625 28.203125 41.101562 28.230469 41.042969 28.269531 M 41.648438 28.882812 C 41.648438 29.195312 41.652344 29.328125 41.65625 29.175781 C 41.664062 29.027344 41.664062 28.769531 41.65625 28.609375 C 41.652344 28.449219 41.648438 28.570312 41.648438 28.882812 M 39.246094 29.640625 L 39.148438 29.75 L 39.257812 29.652344 C 39.359375 29.5625 39.382812 29.535156 39.355469 29.535156 C 39.351562 29.535156 39.300781 29.582031 39.246094 29.640625 M 41.675781 29.699219 C 41.675781 29.765625 41.679688 29.789062 41.691406 29.757812 C 41.699219 29.726562 41.699219 29.671875 41.691406 29.640625 C 41.679688 29.609375 41.675781 29.636719 41.675781 29.699219 M 38.617188 30.242188 L 38.148438 30.714844 L 38.625 30.25 C 39.066406 29.816406 39.113281 29.765625 39.089844 29.765625 C 39.085938 29.765625 38.871094 29.980469 38.617188 30.242188 M 39.882812 31.308594 L 39.785156 31.417969 L 39.890625 31.320312 C 39.992188 31.226562 40.015625 31.199219 39.988281 31.199219 C 39.984375 31.199219 39.933594 31.25 39.882812 31.308594 M 40.179688 31.714844 C 40.179688 31.882812 40.183594 31.953125 40.191406 31.875 C 40.199219 31.796875 40.199219 31.664062 40.191406 31.574219 C 40.183594 31.488281 40.179688 31.550781 40.179688 31.714844 M 37.464844 31.566406 C 37.425781 31.621094 37.402344 31.667969 37.414062 31.667969 C 37.421875 31.667969 37.460938 31.621094 37.5 31.566406 C 37.539062 31.511719 37.5625 31.464844 37.554688 31.464844 C 37.546875 31.464844 37.503906 31.511719 37.464844 31.566406 M 39.546875 31.609375 L 39.417969 31.75 L 39.558594 31.617188 C 39.691406 31.496094 39.714844 31.464844 39.691406 31.464844 C 39.683594 31.464844 39.621094 31.53125 39.546875 31.609375 M 37.347656 31.742188 C 37.230469 31.9375 37.222656 31.953125 37.28125 31.882812 C 37.351562 31.800781 37.410156 31.699219 37.386719 31.699219 C 37.378906 31.699219 37.359375 31.71875 37.347656 31.742188 M 38.933594 32.214844 C 38.851562 32.300781 38.792969 32.367188 38.804688 32.367188 C 38.8125 32.367188 38.886719 32.300781 38.964844 32.214844 C 39.046875 32.132812 39.105469 32.066406 39.097656 32.066406 C 39.089844 32.066406 39.015625 32.132812 38.933594 32.214844 M 42.667969 33.25 C 42.667969 33.269531 42.699219 33.335938 42.734375 33.398438 C 42.769531 33.464844 42.796875 33.5 42.796875 33.484375 C 42.796875 33.464844 42.769531 33.398438 42.734375 33.332031 C 42.699219 33.269531 42.667969 33.230469 42.667969 33.25 M 36.410156 34.550781 C 36.410156 34.714844 36.417969 34.785156 36.425781 34.710938 C 36.429688 34.632812 36.429688 34.496094 36.425781 34.410156 C 36.417969 34.320312 36.410156 34.386719 36.410156 34.550781 M 41.367188 34.582031 C 41.429688 34.648438 41.488281 34.699219 41.496094 34.699219 C 41.503906 34.699219 41.460938 34.648438 41.398438 34.582031 C 41.335938 34.519531 41.28125 34.464844 41.269531 34.464844 C 41.261719 34.464844 41.304688 34.519531 41.367188 34.582031 M 41.785156 35.035156 C 41.929688 35.179688 42.054688 35.300781 42.066406 35.300781 C 42.074219 35.300781 41.960938 35.179688 41.816406 35.035156 C 41.671875 34.886719 41.542969 34.765625 41.535156 34.765625 C 41.527344 34.765625 41.636719 34.886719 41.785156 35.035156 M 37.410156 35.214844 C 37.410156 35.308594 37.417969 35.34375 37.425781 35.292969 C 37.429688 35.242188 37.429688 35.164062 37.421875 35.125 C 37.414062 35.082031 37.410156 35.125 37.410156 35.214844 M 43.578125 35.515625 C 43.578125 35.664062 43.585938 35.71875 43.589844 35.640625 C 43.597656 35.5625 43.597656 35.441406 43.589844 35.375 C 43.582031 35.304688 43.578125 35.371094 43.578125 35.515625 M 37.410156 35.75 C 37.410156 35.839844 37.417969 35.875 37.425781 35.824219 C 37.429688 35.773438 37.429688 35.699219 37.421875 35.65625 C 37.414062 35.617188 37.410156 35.660156 37.410156 35.75 M 42.445312 36.234375 C 42.445312 36.351562 42.449219 36.402344 42.457031 36.339844 C 42.464844 36.28125 42.464844 36.183594 42.457031 36.125 C 42.449219 36.066406 42.445312 36.113281 42.445312 36.234375 M 37.550781 36.464844 C 37.566406 36.511719 37.589844 36.574219 37.605469 36.601562 C 37.628906 36.636719 37.628906 36.625 37.613281 36.566406 C 37.601562 36.519531 37.578125 36.460938 37.5625 36.433594 C 37.539062 36.398438 37.535156 36.410156 37.550781 36.464844 M 42.898438 36.925781 L 42.714844 37.117188 L 42.910156 36.933594 C 43.085938 36.765625 43.113281 36.734375 43.089844 36.734375 C 43.085938 36.734375 43 36.820312 42.898438 36.925781 M 37.417969 37.132812 C 37.542969 37.261719 37.65625 37.367188 37.664062 37.367188 C 37.675781 37.367188 37.578125 37.261719 37.449219 37.132812 C 37.324219 37.003906 37.210938 36.898438 37.203125 36.898438 C 37.191406 36.898438 37.289062 37.003906 37.417969 37.132812 M 40.25 37.964844 C 40.25 38.527344 40.253906 38.753906 40.257812 38.476562 C 40.265625 38.195312 40.265625 37.738281 40.257812 37.457031 C 40.253906 37.179688 40.25 37.40625 40.25 37.964844 M 42.550781 37.21875 L 42.449219 37.304688 L 42.558594 37.234375 C 42.617188 37.195312 42.667969 37.15625 42.667969 37.148438 C 42.667969 37.121094 42.652344 37.132812 42.550781 37.21875 M 39.507812 38.054688 L 39.5 38.960938 L 39.351562 38.992188 L 39.425781 38.996094 C 39.535156 39.003906 39.535156 39 39.523438 38.03125 L 39.515625 37.148438 L 39.507812 38.054688 M 38.167969 37.449219 C 38.265625 37.550781 38.355469 37.632812 38.363281 37.632812 C 38.375 37.632812 38.300781 37.550781 38.199219 37.449219 C 38.101562 37.347656 38.011719 37.265625 38.003906 37.265625 C 37.992188 37.265625 38.066406 37.347656 38.167969 37.449219 M 42.160156 37.453125 C 42.035156 37.519531 42.042969 37.546875 42.167969 37.484375 C 42.222656 37.453125 42.265625 37.425781 42.265625 37.414062 C 42.265625 37.394531 42.261719 37.394531 42.160156 37.453125 M 36.34375 38.390625 C 36.394531 38.398438 36.46875 38.398438 36.507812 38.390625 C 36.550781 38.382812 36.507812 38.375 36.417969 38.375 C 36.324219 38.375 36.292969 38.382812 36.34375 38.390625 M 43.410156 38.390625 C 43.460938 38.398438 43.535156 38.398438 43.574219 38.390625 C 43.617188 38.382812 43.574219 38.375 43.484375 38.375 C 43.390625 38.375 43.359375 38.382812 43.410156 38.390625 M 36.050781 38.496094 C 36.019531 38.535156 36 38.582031 36.011719 38.605469 C 36.023438 38.640625 36.027344 38.640625 36.03125 38.601562 C 36.03125 38.578125 36.058594 38.527344 36.089844 38.496094 C 36.117188 38.460938 36.136719 38.433594 36.128906 38.433594 C 36.117188 38.433594 36.085938 38.460938 36.050781 38.496094 M 44.011719 38.800781 C 44.011719 38.902344 44.015625 38.941406 44.023438 38.890625 C 44.03125 38.839844 44.03125 38.757812 44.023438 38.707031 C 44.015625 38.65625 44.011719 38.699219 44.011719 38.800781 M 35.980469 38.984375 C 35.980469 39.167969 35.984375 39.238281 35.992188 39.140625 C 35.996094 39.042969 35.996094 38.894531 35.992188 38.808594 C 35.984375 38.722656 35.980469 38.800781 35.980469 38.984375 M 40.476562 38.957031 C 40.507812 38.964844 40.558594 38.964844 40.589844 38.957031 C 40.625 38.949219 40.597656 38.941406 40.535156 38.941406 C 40.46875 38.941406 40.441406 38.949219 40.476562 38.957031 M 44.050781 45.101562 C 44.050781 48.371094 44.054688 49.710938 44.058594 48.074219 C 44.0625 46.4375 44.0625 43.761719 44.058594 42.125 C 44.054688 40.488281 44.050781 41.828125 44.050781 45.101562 M 35.949219 46.765625 C 35.949219 47.253906 35.953125 47.453125 35.957031 47.207031 C 35.964844 46.964844 35.964844 46.566406 35.957031 46.324219 C 35.953125 46.082031 35.949219 46.28125 35.949219 46.765625 M 35.980469 50.933594 C 35.980469 51.125 35.984375 51.203125 35.992188 51.109375 C 35.996094 51.011719 35.996094 50.855469 35.992188 50.757812 C 35.984375 50.660156 35.980469 50.742188 35.980469 50.933594 M 44.007812 51.265625 C 44.007812 51.332031 44.015625 51.355469 44.023438 51.324219 C 44.03125 51.292969 44.03125 51.242188 44.023438 51.207031 C 44.015625 51.175781 44.007812 51.203125 44.007812 51.265625 M 36 51.359375 C 36 51.421875 36.125 51.65625 36.175781 51.6875 C 36.207031 51.707031 36.207031 51.703125 36.175781 51.664062 C 36.152344 51.636719 36.105469 51.546875 36.070312 51.464844 C 36.03125 51.382812 36 51.335938 36 51.359375 M 43.921875 51.515625 C 43.894531 51.582031 43.875 51.632812 43.882812 51.632812 C 43.90625 51.632812 44.007812 51.429688 43.992188 51.414062 C 43.984375 51.40625 43.953125 51.453125 43.921875 51.515625 M 43.746094 51.773438 L 43.648438 51.882812 L 43.757812 51.785156 C 43.859375 51.695312 43.882812 51.667969 43.855469 51.667969 C 43.851562 51.667969 43.800781 51.714844 43.746094 51.773438 M 36.320312 51.835938 C 36.339844 51.871094 36.535156 51.976562 36.550781 51.960938 C 36.558594 51.953125 36.503906 51.917969 36.429688 51.878906 C 36.359375 51.835938 36.308594 51.820312 36.320312 51.835938 M 37.441406 52.125 C 37.5625 52.132812 37.773438 52.132812 37.90625 52.125 C 38.039062 52.117188 37.941406 52.113281 37.683594 52.113281 C 37.425781 52.113281 37.316406 52.117188 37.441406 52.125 M 42.007812 52.125 C 42.152344 52.132812 42.382812 52.132812 42.523438 52.125 C 42.667969 52.117188 42.550781 52.113281 42.265625 52.113281 C 41.980469 52.113281 41.867188 52.117188 42.007812 52.125 "/>
<path style=" stroke:none;fill-rule:evenodd;fill:rgb(1.568627%,3.529412%,61.568627%);fill-opacity:1;" d="M 56.300781 52.699219 C 56.261719 52.753906 56.234375 52.800781 56.246094 52.800781 C 56.253906 52.800781 56.292969 52.753906 56.332031 52.699219 C 56.371094 52.644531 56.398438 52.601562 56.386719 52.601562 C 56.378906 52.601562 56.339844 52.644531 56.300781 52.699219 "/>
<path style=" stroke:none;fill-rule:evenodd;fill:rgb(16.470588%,31.372549%,72.54902%);fill-opacity:1;" d="M 41.675781 28.316406 C 41.675781 28.390625 41.683594 28.414062 41.691406 28.375 C 41.699219 28.332031 41.699219 28.273438 41.691406 28.242188 C 41.679688 28.210938 41.675781 28.242188 41.675781 28.316406 M 41.675781 29.449219 C 41.675781 29.542969 41.683594 29.574219 41.691406 29.523438 C 41.699219 29.472656 41.699219 29.398438 41.691406 29.359375 C 41.683594 29.316406 41.675781 29.359375 41.675781 29.449219 M 41.707031 29.832031 C 41.707031 29.898438 41.714844 29.921875 41.722656 29.890625 C 41.730469 29.859375 41.730469 29.808594 41.722656 29.773438 C 41.714844 29.742188 41.707031 29.769531 41.707031 29.832031 M 38.550781 30.273438 L 38.25 30.582031 L 38.558594 30.285156 C 38.84375 30.007812 38.882812 29.964844 38.859375 29.964844 C 38.851562 29.964844 38.714844 30.105469 38.550781 30.273438 M 39.25 31.910156 L 39.082031 32.082031 L 39.257812 31.917969 C 39.355469 31.828125 39.433594 31.75 39.433594 31.742188 C 39.433594 31.71875 39.402344 31.746094 39.25 31.910156 M 41.332031 34.578125 C 41.332031 34.582031 41.382812 34.632812 41.441406 34.683594 L 41.550781 34.785156 L 41.453125 34.675781 C 41.359375 34.574219 41.332031 34.550781 41.332031 34.578125 M 37.410156 35.484375 C 37.410156 35.554688 37.414062 35.582031 37.421875 35.542969 C 37.429688 35.5 37.429688 35.441406 37.421875 35.40625 C 37.414062 35.375 37.40625 35.410156 37.410156 35.484375 M 39.507812 37.066406 C 39.507812 37.128906 39.515625 37.15625 39.523438 37.125 C 39.53125 37.09375 39.53125 37.039062 39.523438 37.007812 C 39.515625 36.976562 39.507812 37.003906 39.507812 37.066406 M 37.398438 37.148438 C 37.460938 37.214844 37.519531 37.265625 37.53125 37.265625 C 37.539062 37.265625 37.496094 37.214844 37.433594 37.148438 C 37.371094 37.085938 37.3125 37.035156 37.304688 37.035156 C 37.292969 37.035156 37.335938 37.085938 37.398438 37.148438 M 40.28125 38.066406 C 40.28125 38.570312 40.285156 38.777344 40.292969 38.523438 C 40.296875 38.273438 40.296875 37.859375 40.292969 37.609375 C 40.285156 37.355469 40.28125 37.5625 40.28125 38.066406 M 41.882812 37.410156 L 41.75 37.550781 L 41.890625 37.417969 C 42.023438 37.296875 42.046875 37.265625 42.023438 37.265625 C 42.019531 37.265625 41.953125 37.332031 41.882812 37.410156 M 44.042969 38.984375 C 44.042969 39.09375 44.050781 39.132812 44.058594 39.074219 C 44.066406 39.015625 44.066406 38.925781 44.058594 38.875 C 44.050781 38.824219 44.042969 38.875 44.042969 38.984375 M 35.949219 42.382812 C 35.949219 44.328125 35.953125 45.125 35.957031 44.160156 C 35.964844 43.195312 35.964844 41.605469 35.957031 40.628906 C 35.953125 39.648438 35.949219 40.441406 35.949219 42.382812 M 35.949219 49.332031 C 35.949219 50.277344 35.953125 50.664062 35.957031 50.191406 C 35.964844 49.71875 35.964844 48.945312 35.957031 48.476562 C 35.953125 48.003906 35.949219 48.390625 35.949219 49.332031 M 44.042969 51.167969 C 44.042969 51.25 44.050781 51.28125 44.058594 51.242188 C 44.066406 51.199219 44.066406 51.132812 44.058594 51.089844 C 44.050781 51.050781 44.042969 51.085938 44.042969 51.167969 M 38.757812 52.160156 C 39.421875 52.164062 40.511719 52.164062 41.175781 52.160156 C 41.839844 52.152344 41.296875 52.148438 39.964844 52.148438 C 38.636719 52.148438 38.09375 52.152344 38.757812 52.160156 "/>
</g>
</svg>
